<svg id="Layer_1" data-name="Layer 1" xmlns="http://www.w3.org/2000/svg" viewBox="0 0 290 71"><defs><style>.cls-1{fill-rule:evenodd;}</style></defs><title>Merchant - Fashion</title><path id="fashion" class="cls-1" d="M38.92,9.68a5.86,5.86,0,0,1-1.62,4.24,5.56,5.56,0,0,1-4.18,1.68,5.85,5.85,0,0,1-4.18-1.53,5,5,0,0,1-1.62-3.8q0-1.87,2-5.14a2.16,2.16,0,0,0,.39-1.38c0-1.51-.95-2.27-2.85-2.27A4.73,4.73,0,0,0,22.9,4a12,12,0,0,0-2.06,4.64A49.61,49.61,0,0,0,20.25,18v9h7c.79,0,1.18.26,1.18.79,0,.33-.19.56-.59.69a15,15,0,0,1-3.83.3c-.46,0-1.7,0-3.73-.1V63.5a18.31,18.31,0,0,0,.19,3.75c.33.72,1.35,1,3,1l2.85-.1c.85,0,1.28.29,1.28.89s-.43.79-1.28.79c-.39,0-.92,0-1.57-.1q-3-.3-7.47-.3-2,0-8.06.15l-6.68.15H1.18C.39,69.72,0,69.49,0,69s1.11-.83,3.34-.89c1.77-.07,2.8-.28,3.1-.65s.44-1.62.44-3.8V28.74H1.67c-1,0-1.47-.3-1.47-.89a.71.71,0,0,1,.68-.79c.46-.07,2-.1,4.62-.1H6.88V24.88A33.41,33.41,0,0,1,8.94,13.33a21.68,21.68,0,0,1,5.41-8.69A17,17,0,0,1,26.34.2a14.8,14.8,0,0,1,9.09,2.61A8.19,8.19,0,0,1,38.92,9.68Zm34.41,54.8c0,.53-.53,1.25-1.57,2.18a14.93,14.93,0,0,1-10.42,3.85q-4,0-5.85-1.68t-2.41-6Q48.67,70.9,41,70.9a9.17,9.17,0,0,1-6.84-2.66,9.52,9.52,0,0,1-2.6-6.92q0-12.43,21.23-14.71V44.54q0-9.88-.69-12.15L52,31.9C51.09,28.6,48.76,27,45,27a7.21,7.21,0,0,0-5.2,1.87,5.28,5.28,0,0,0-2,3.66c0,.66.79,1,2.36,1.18q3.54.3,3.54,4.35a4.88,4.88,0,0,1-1.43,3.6,5,5,0,0,1-3.68,1.43A6.5,6.5,0,0,1,34,41.33a5.83,5.83,0,0,1-1.82-4.4q0-4.24,4.23-7.7c2.81-2.3,6.52-3.46,11.1-3.46q10.23,0,14.25,3.66Q65,32.49,65,40.09V57q0,4.94.09,5.73.5,4.14,2.85,4.14c1.12,0,2.49-.79,4.13-2.37.33-.33.59-.49.79-.49A.43.43,0,0,1,73.33,64.48ZM52.79,52.73V47.89q-9.54,1.88-9.53,10.87c0,4.6,1.57,6.91,4.71,6.91q2.66,0,3.74-3C52.43,60.73,52.79,57.41,52.79,52.73Zm52,3.36a14.6,14.6,0,0,1-4,10.71,13.94,13.94,0,0,1-10.42,4.1,22.5,22.5,0,0,1-7.47-1.58A18.43,18.43,0,0,0,78.26,68a2.39,2.39,0,0,0-2.46,1.38c-.39.92-.69,1.38-.89,1.38-.39,0-.59-.23-.59-.69a14.17,14.17,0,0,1,.2-1.87,47.89,47.89,0,0,0,.3-6.52v-1a17.6,17.6,0,0,1-.1-2.17V56.88c0-.73.16-1.09.49-1.09s.69.5.88,1.48a14.23,14.23,0,0,0,5,8.74,13.89,13.89,0,0,0,9.23,3.51,6.95,6.95,0,0,0,7.28-7.31,5.77,5.77,0,0,0-1.87-4.34c-.92-.86-3.37-1.95-7.37-3.26q-7.38-2.47-10.66-6a12.49,12.49,0,0,1-3.3-8.93,13.65,13.65,0,0,1,3.93-9.88A12.92,12.92,0,0,1,88,25.77a34.48,34.48,0,0,1,7.46,1.39,5.41,5.41,0,0,0,1.18.19c1.45,0,2.53-.89,3.25-2.66.13-.33.29-.5.49-.5.46,0,.69.4.69,1.19l-.1,1.87a6.36,6.36,0,0,0-.1,1.39,71.49,71.49,0,0,0,.49,8.29v.5c0,.52-.2.79-.59.79s-.59-.3-.78-.89q-2.85-10.08-11.6-10.08A8.08,8.08,0,0,0,83,29a5.67,5.67,0,0,0-2.11,4.54,5,5,0,0,0,1.77,4A25.25,25.25,0,0,0,89.56,41q8.94,3.17,12.09,6.32T104.79,56.09Zm53.48,13.33c0,.4-.3.59-.89.59h-2c-1.38-.06-2.52-.1-3.44-.1h-2.46c-5.63,0-9.11-.06-10.42-.19h-1.57l-2.36.1c-.85.06-1.28-.17-1.28-.7s.17-.59.5-.59l2.26.1c1.44.07,2.26-.33,2.45-1.18q.19-.8.2-9.88V42.86q0-9.2-.88-10.87c-.86-1.71-2.49-2.56-4.92-2.56a6.53,6.53,0,0,0-5.9,3.45c-.65,1.12-1,3.53-1,7.21V55.6q0,7.2.1,7.9v1.18l-.1,2.37c-.06,1,1.31,1.48,4.13,1.48.59,0,.88.2.88.59s-.42.7-1.27.7h-.79a19.59,19.59,0,0,0-2.36-.1h-4.32l-5.51.1-5.79.19h-3c-1,0-1.48-.19-1.48-.59a.39.39,0,0,1,.2-.39,2.33,2.33,0,0,1,.88-.1,17.34,17.34,0,0,0,4.43-.3c.46-.2.75-.95.88-2.27q.11-1.19.1-11.85V18.27q0-10.66-.44-12.3c-.3-1.08-1.69-1.63-4.18-1.63-1.9,0-2.85-.19-2.85-.59s1.11-.66,3.34-.79A61,61,0,0,0,123.77.39,7.31,7.31,0,0,1,125.64,0c.52,0,.79,1.84.79,5.53v7.21c-.07,2.11-.1,3.55-.1,4.34v15.7a18,18,0,0,1,5.55-5.53,15.37,15.37,0,0,1,7.32-1.48q9.74,0,12.19,7.9a27.9,27.9,0,0,1,.88,8.3V65c0,1.71.28,2.76.84,3.16s1.95.59,4.17.59Q158.27,68.73,158.27,69.42ZM179.8,6.52a6.68,6.68,0,0,1-1.86,4.74,6,6,0,0,1-4.52,2,6.24,6.24,0,0,1-4.62-1.87,6.42,6.42,0,0,1-1.87-4.74,6,6,0,0,1,1.87-4.55A6.7,6.7,0,0,1,173.61.3,6,6,0,0,1,178,2.07,6.06,6.06,0,0,1,179.8,6.52Zm7.08,62.6c0,.46-.3.7-.88.7l-13.08-.2-9.43.2c-.39,0-.89,0-1.47.09h-.89c-.79,0-1.18-.26-1.18-.79s.75-.62,2.26-.69c2.23-.06,3.54-.31,3.93-.74s.59-1.73.59-3.9V35.45c0-2.5-.21-4-.64-4.49s-1.72-.74-3.88-.74a15.86,15.86,0,0,1-2.41-.1c-.23-.07-.34-.3-.34-.69s.49-.69,1.47-.69q10.81-.1,18.48-3.36c.13.79.3,3,.49,6.52l.1,12.54V63c0,2.7.25,4.28.74,4.74s2.18.69,5.06.69Q186.88,68.43,186.88,69.12Zm47.48-20.34a20.74,20.74,0,0,1-8.25,17.09A22.48,22.48,0,0,1,211.86,71a21.89,21.89,0,0,1-16-6.67,21.42,21.42,0,0,1-6.74-15.75,21.86,21.86,0,0,1,6.74-16.14,22.27,22.27,0,0,1,16.26-6.67,21,21,0,0,1,15.68,6.77A22.56,22.56,0,0,1,234.36,48.78Zm-14.84.1q0-12.24-1.67-16.79-1.86-5-6-5-3.84,0-6,5.28T203.7,46.91q0,12.93,2.55,18.36,2.07,4.35,5.8,4.35c3.08,0,5.11-1.85,6.1-5.53Q219.52,58.86,219.52,48.88ZM290,69.12c0,.53-.82.79-2.46.79L285,69.82c-1.57-.07-3.87-.1-6.88-.1H275l-8.45.1c-.92,0-1.37-.27-1.37-.79s.39-.7,1.17-.7h.79c1.7,0,2.7-.21,3-.64s.44-1.89.44-4.39V44.24q0-10.56-1.38-12.64c-.78-1.19-2.19-1.78-4.22-1.78a7,7,0,0,0-5,1.88,6.28,6.28,0,0,0-2,4.74l.1,29.92a2,2,0,0,0,.83,1.53,9.42,9.42,0,0,0,3.2.44c.52,0,.79.2.79.6s-.23.62-.69.69-2.1.1-4.92.1-5.14,0-7,.1q-5.42.2-11,.19c-.79,0-1.18-.23-1.18-.69s1-.79,3-.79,3.16-.39,3.49-1.18l.29-1.39V43.25c0-6.38-.07-9.71-.2-10-.19-1-1.08-1.48-2.65-1.48a21.58,21.58,0,0,0-2.26.1H238.7c-1,0-1.57-.23-1.57-.7s.39-.72,1.18-.79q11-.48,17.59-4.64a3.05,3.05,0,0,1,1.08-.39c.52,0,.78.52.78,1.58,0,2.89,0,4.77-.09,5.63A16.08,16.08,0,0,1,271,25.77q8.46,0,11,5.93a17.26,17.26,0,0,1,1.33,5.53q.24,3.06.24,12.64V64.19c0,2,.17,3.24.49,3.6s1.4.54,3.2.54S290,68.6,290,69.12Z"/></svg>