<svg id="Layer_1" data-name="Layer 1" xmlns="http://www.w3.org/2000/svg" viewBox="0 0 329 67"><defs><style>.cls-1{fill:#1095ff;fill-rule:evenodd;}</style></defs><title>Other - Chat App</title><path id="Chat-App-Logo" class="cls-1" d="M26.85,53.37A25.56,25.56,0,0,0,49,41.27l-8.77-5.06c-2.44,4.47-7.52,7.26-13.42,7.26-10.11,0-16.75-7-16.75-16.79S16.74,9.82,26.85,9.82c5.9,0,10.91,2.79,13.42,7.33l8.77-5A25.71,25.71,0,0,0,26.85,0C11.21,0,0,11.66,0,26.68S11.21,53.37,26.85,53.37ZM76.41,14.66c-5,0-8.78,1.83-11,5.13V1H55.9V52.34h9.52V32.55c0-6.38,3.46-9.09,8.11-9.09,4.28,0,7.3,2.56,7.3,7.55V52.34h9.51V29.83C90.34,20.09,84.22,14.66,76.41,14.66Zm50.51,1h9.52V52.34h-9.52V48c-2.65,3.3-6.63,5.36-12,5.36C105.09,53.37,97,44.94,97,34s8.11-19.35,17.92-19.35c5.39,0,9.37,2.05,12,5.35ZM116.67,44.35A9.88,9.88,0,0,0,126.92,34a9.88,9.88,0,0,0-10.25-10.33c-5.82,0-10.17,4.18-10.17,10.33S110.85,44.35,116.67,44.35ZM166.6,24.78V15.69h-8.33V5.42l-9.52,2.86v7.41h-6.41v9.09h6.41V40c0,9.9,4.5,13.79,17.85,12.32V43.76c-5.46.3-8.33.22-8.33-3.74V24.78Zm60.26,27.56-3.1-9.24H203.18l-3.1,9.24h-11L207.16,1h12.62l18.14,51.31ZM206.43,33.65h14.16l-7.08-21Zm58-19c9.89,0,18,8.43,18,19.35s-8.11,19.36-18,19.36c-5.38,0-9.29-2-11.94-5.36V67h-9.52V15.69h9.52V20C255.1,16.64,259,14.66,264.39,14.66Zm-1.77,29.69A9.89,9.89,0,0,0,272.88,34a9.89,9.89,0,0,0-10.26-10.33c-5.82,0-10.17,4.18-10.17,10.33S256.8,44.35,262.62,44.35ZM311,14.66c9.89,0,18,8.43,18,19.35s-8.11,19.36-18,19.36c-5.38,0-9.29-2-11.94-5.36V67h-9.52V15.69h9.52V20C301.71,16.64,305.62,14.66,311,14.66Zm-1.77,29.69A9.89,9.89,0,0,0,319.49,34a9.89,9.89,0,0,0-10.26-10.33c-5.82,0-10.17,4.18-10.17,10.33S303.41,44.35,309.23,44.35Z"/></svg>