<svg id="Layer_1" data-name="Layer 1" xmlns="http://www.w3.org/2000/svg" viewBox="0 0 299 74"><title>Merchant - Presidio Coffee Tea</title><g id="Mask"><path d="M24.89,3.93c2.19,1.89,3.28,4.55,3.28,8s-1.09,6.38-3.28,8.34-5.26,3-9.23,3H8.38v9.54H3.05V1.11H15.66Q21.62,1.11,24.89,3.93ZM8.38,18.43h7.06a8.71,8.71,0,0,0,5.67-1.61,5.81,5.81,0,0,0,2-4.77,5.51,5.51,0,0,0-2-4.61,9,9,0,0,0-5.67-1.55H8.38V18.43Zm50.67,4.75c-.29,0-.78.05-1.46.05h-7.5v9.53H44.75V1.11H57.59q6,0,9.4,2.83t3.34,8a11.56,11.56,0,0,1-1.66,6.39,10,10,0,0,1-4.86,3.86L70.9,32.76H64.83Zm4.24-6.35a5.76,5.76,0,0,0,2-4.77,5.3,5.3,0,0,0-2-4.61A9.13,9.13,0,0,0,57.6,5.9H50.09V18.43h7.5a8.8,8.8,0,0,0,5.7-1.6ZM94.05,5.9v8.57H109.5v4.78H94.05V28h17.82v4.79H88.71V1.11h22.62V5.9Zm52-4.13a19.56,19.56,0,0,1,5.14,2.39l-2.21,4.7a20.72,20.72,0,0,0-4.88-2.23,15.56,15.56,0,0,0-4.38-.72,7.1,7.1,0,0,0-3.78.85,2.75,2.75,0,0,0-1.36,2.45,3.23,3.23,0,0,0,.89,2.34,6.49,6.49,0,0,0,2.25,1.52,34.79,34.79,0,0,0,3.81,1.28,40.08,40.08,0,0,1,5.22,1.88A9.06,9.06,0,0,1,150.14,19a7.51,7.51,0,0,1,1.42,4.76A8,8,0,0,1,150,28.6a9.66,9.66,0,0,1-4.23,3.21,15.81,15.81,0,0,1-6.19,1.13,18.7,18.7,0,0,1-7-1.33A19.86,19.86,0,0,1,126.64,28L129,23.34a18.49,18.49,0,0,0,5.27,3.41,14,14,0,0,0,5.44,1.2,8,8,0,0,0,4.36-1,3.19,3.19,0,0,0,1.56-2.82,3.37,3.37,0,0,0-.92-2.44,6.51,6.51,0,0,0-2.31-1.49c-.92-.36-2.19-.78-3.81-1.27a40.42,40.42,0,0,1-5.22-1.84,9.42,9.42,0,0,1-3.4-2.67,7.23,7.23,0,0,1-1.42-4.67A7.7,7.7,0,0,1,130,5.07,9.19,9.19,0,0,1,134,2a15.59,15.59,0,0,1,6-1.08A20,20,0,0,1,146,1.77Zm23.05-.66h5.33V32.76h-5.33Zm46.34,2a14.85,14.85,0,0,1,5.84,5.66,15.83,15.83,0,0,1,2.11,8.12,15.73,15.73,0,0,1-2.13,8.12,15.13,15.13,0,0,1-5.88,5.65,17.36,17.36,0,0,1-8.5,2.05H194V1.11h13A17.34,17.34,0,0,1,215.39,3.15ZM199.33,28h7.77a11,11,0,0,0,5.52-1.4,10.13,10.13,0,0,0,3.92-3.9A11.32,11.32,0,0,0,218,17a11.1,11.1,0,0,0-1.47-5.68,10.49,10.49,0,0,0-4-4,11.2,11.2,0,0,0-5.6-1.43h-7.56V28h0Zm41,4.79V1.11h5.34V32.76Zm47.6-29.67A15.82,15.82,0,0,1,294,8.85a15.77,15.77,0,0,1-6.06,22,18.1,18.1,0,0,1-17,0,15.92,15.92,0,0,1-6-5.78,15.46,15.46,0,0,1-2.18-8.15,15.27,15.27,0,0,1,2.2-8.11,15.88,15.88,0,0,1,6.05-5.74A18.2,18.2,0,0,1,287.91,3.09ZM273.76,7.27a11.43,11.43,0,0,0-4.16,4,11,11,0,0,0,0,11.27,11.73,11.73,0,0,0,4.16,4.09,11.23,11.23,0,0,0,16.92-9.74,10.78,10.78,0,0,0-1.51-5.62,11.31,11.31,0,0,0-4.08-4.05,11.06,11.06,0,0,0-5.66-1.5A11.17,11.17,0,0,0,273.76,7.27ZM12.13,58A8.73,8.73,0,0,1,15,59.91l-2.27,2.67a5.65,5.65,0,0,0-1.79-1.47,4.56,4.56,0,0,0-2.08-.54A4.16,4.16,0,0,0,5.1,62.76,4.63,4.63,0,0,0,4.54,65a4.75,4.75,0,0,0,.56,2.31A4.23,4.23,0,0,0,8.85,69.6a4.83,4.83,0,0,0,2-.49,6.22,6.22,0,0,0,1.86-1.33L15,70.19a9.6,9.6,0,0,1-3,2A8.21,8.21,0,0,1,8.63,73a8.31,8.31,0,0,1-4.14-1,7.6,7.6,0,0,1-2.9-2.84,7.94,7.94,0,0,1-1.06-4,7.48,7.48,0,0,1,1.08-4,7.78,7.78,0,0,1,3-2.79,8.53,8.53,0,0,1,4.19-1A8.49,8.49,0,0,1,12.13,58Zm28.54.31a7.72,7.72,0,0,1,3,2.8,7.44,7.44,0,0,1,1.09,4A7.63,7.63,0,0,1,40.67,72a9.2,9.2,0,0,1-8.48,0,7.61,7.61,0,0,1-3-2.83,7.71,7.71,0,0,1-1.09-4,7.53,7.53,0,0,1,1.09-4,7.79,7.79,0,0,1,3-2.81A9.36,9.36,0,0,1,40.67,58.33Zm-6.38,2.84a4.47,4.47,0,0,0-1.59,1.64,4.58,4.58,0,0,0-.59,2.32,4.64,4.64,0,0,0,.59,2.33,4.3,4.3,0,0,0,1.59,1.66,4.12,4.12,0,0,0,2.16.6,4,4,0,0,0,2.15-.6,4.34,4.34,0,0,0,1.55-1.66,4.77,4.77,0,0,0,.58-2.33,4.7,4.7,0,0,0-.58-2.32,4.29,4.29,0,0,0-1.55-1.64,4.13,4.13,0,0,0-4.29,0Zm29.1-.64v3.56h6.9v3.08h-6.9v5.66H59.48V57.45H70.89v3.08Zm25.94,0v3.56h6.9v3.08h-6.9v5.66H85.42V57.45H96.8v3.08Zm25.9,0v3.06h7.33v3.08h-7.33v3.08h8.37v3.08H111.33V57.45h12v3.08h-8.1Zm27.44,0v3.06H150v3.08h-7.33v3.08H151v3.08H138.77V57.45h12v3.08Zm50.6,10.86a7.27,7.27,0,0,1-2.07,1.2,6.5,6.5,0,0,1-2.3.42,6.17,6.17,0,0,1-2.67-.57,4.55,4.55,0,0,1-1.86-1.59,4.08,4.08,0,0,1-.67-2.32,3.5,3.5,0,0,1,.81-2.36,7.63,7.63,0,0,1,2.24-1.75,8.76,8.76,0,0,1-1-1.8,4.47,4.47,0,0,1-.31-1.65,3.31,3.31,0,0,1,1.2-2.67,4.85,4.85,0,0,1,3.2-1,5.7,5.7,0,0,1,2.27.44A3.74,3.74,0,0,1,193.68,59a3,3,0,0,1,.56,1.8,3.17,3.17,0,0,1-1,2.39A10.82,10.82,0,0,1,190.62,65q1.17,1.29,2.43,2.52a10.85,10.85,0,0,0,1-2.46l2.43,1.72a12.18,12.18,0,0,1-1.41,2.73l2.29,2.17-1.92,1.86Zm-1.94-1.89c-1.55-1.55-2.59-2.64-3.13-3.25a4.71,4.71,0,0,0-1,.94,1.66,1.66,0,0,0-.38,1.08,1.92,1.92,0,0,0,.66,1.5,2.35,2.35,0,0,0,1.64.59A3.6,3.6,0,0,0,191.33,69.5Zm-2.14-6.35A6.42,6.42,0,0,0,190.71,62a1.82,1.82,0,0,0,.54-1.28,1.31,1.31,0,0,0-.38-1,1.53,1.53,0,0,0-2.08.06,1.64,1.64,0,0,0-.4,1.12A4.14,4.14,0,0,0,189.19,63.15Zm47.38-2.56V72.83h-3.9V60.59h-4.6V57.43H241.2v3.16h-4.63Zm22.87-.06v3.06h7.33v3.08h-7.33v3.08h8.37v3.08H255.52V57.45h12v3.08h-8.13Zm27,9.47-1.11,2.83h-4L288,57.45h4l6.48,15.38h-4.17L293.21,70Zm3.38-8.67L287.62,67h4.44Z"/></g></svg>