<svg id="Layer_1" data-name="Layer 1" xmlns="http://www.w3.org/2000/svg" viewBox="0 0 248 80"><defs><style>.cls-1{fill:#5541c6;fill-rule:evenodd;}</style></defs><title>Merchant - Airline</title><g id="Airline---Logo"><path id="Fill-3" class="cls-1" d="M19.42,69C13.65,69,13,66.38,13,64.42c0-2.12.81-5,7.86-5.31l9.28-.6v.64c0,8.12-5.82,9.83-10.7,9.83m2.71-42c-6.26,0-11.32,1.87-15,5.56A17.44,17.44,0,0,0,1.38,44.32a1.93,1.93,0,0,0,.52,1.42,2,2,0,0,0,1.42.66l9,.31a2,2,0,0,0,2-1.83c.38-4.05,3.32-6.47,7.86-6.47,5.31,0,7.79,2.94,7.79,9.24v.49l-10.85.62C6.45,49.46,0,54.8,0,64.62,0,74.11,6.73,80,17.58,80A19.93,19.93,0,0,0,30,75.82v1.25a2,2,0,0,0,2,2h9a2,2,0,0,0,2-2V47.46C43,34.46,35.39,27,22.13,27"/><path id="Fill-6" class="cls-1" d="M56.94,16a8.12,8.12,0,0,0,5.68-2.32A8,8,0,0,0,65,7.93a7.76,7.76,0,0,0-2.39-5.54,7.9,7.9,0,0,0-11.33,0,8.13,8.13,0,0,0,0,11.31A8.13,8.13,0,0,0,56.94,16"/><path id="Fill-8" class="cls-1" d="M62,27H53a2,2,0,0,0-2,2V77a2,2,0,0,0,2,2H62a2.05,2.05,0,0,0,2-2V29a2,2,0,0,0-2-2"/><path id="Fill-10" class="cls-1" d="M98,27c-5.25.2-9.24,1.94-11.74,5.22V29.54a2,2,0,0,0-1.94-2H75.93a2,2,0,0,0-1.93,2V77a2,2,0,0,0,1.93,2H84.6a2,2,0,0,0,1.93-2V51.12c0-6.69,4.56-11.24,11.61-11.59a2,2,0,0,0,1.86-2V29a2,2,0,0,0-.6-1.43A1.91,1.91,0,0,0,98,27"/><path id="Fill-12" class="cls-1" d="M117,4A2,2,0,0,0,115,2h-9a2,2,0,0,0-2,2v72.1a2,2,0,0,0,2,2h8.93A2,2,0,0,0,117,76Z"/><path id="Fill-14" class="cls-1" d="M134,16A8,8,0,0,0,142,7.93a7.76,7.76,0,0,0-2.39-5.54,7.9,7.9,0,0,0-11.33,0,8.12,8.12,0,0,0,0,11.31A8.09,8.09,0,0,0,134,16"/><path id="Fill-16" class="cls-1" d="M138,27h-9a2,2,0,0,0-2,2V77a2,2,0,0,0,2,2H138A2.05,2.05,0,0,0,140,77V29a2,2,0,0,0-2-2"/><path id="Fill-18" class="cls-1" d="M173.7,27c-5.9,0-10.47,1.8-13.45,5.37V29.83a2,2,0,0,0-2-2H150a2,2,0,0,0-2,2V77a2,2,0,0,0,2,2h8.87a2,2,0,0,0,2-2V49.93c0-6.45,4.3-11,10.46-11s9.79,4.17,9.79,10.87V77a2,2,0,0,0,2,2h9a2,2,0,0,0,2-2V48.4c0-6.46-1.91-11.69-5.68-15.53S179.68,27,173.7,27"/><path id="Fill-20" class="cls-1" d="M213.19,48.09c.79-6.21,5-9.87,11.46-9.87s10.24,3.49,10.84,9.87ZM224.74,27c-7.32,0-13.34,2.42-17.86,7.2S200,45.4,200,53.5s2.34,14.63,7,19.41S217.71,80,225,80a24,24,0,0,0,14.68-4.7,19.57,19.57,0,0,0,7.53-10.61,2,2,0,0,0-.29-1.65,1.9,1.9,0,0,0-1.46-.83l-8.67-.48a2,2,0,0,0-1.88,1.3c-1.39,3.81-4.72,5.66-10.19,5.66-6.45,0-10.82-3.86-11.64-10.16h33a1.94,1.94,0,0,0,1.91-2V52.25c0-7.7-2.12-13.9-6.3-18.42s-9.9-6.83-17-6.83Z"/></g></svg>