<svg id="Layer_1" data-name="Layer 1" xmlns="http://www.w3.org/2000/svg" viewBox="0 0 146 194"><defs><style>.cls-1{fill:#c78800;}.cls-1,.cls-2{fill-rule:evenodd;}.cls-2{fill:#1a1f71;}</style></defs><title>Issuer - Blue Gold</title><path id="Combined-Shape" class="cls-1" d="M15.5,129.4H30v19.09a40.67,40.67,0,0,1-6.64,1.62,41.58,41.58,0,0,1-6.36.47q-8.28,0-12.64-4.9T0,131.62q0-8.91,5.06-13.9t14-5A27,27,0,0,1,30,115l-2.57,6.24a18.36,18.36,0,0,0-8.33-2,10.24,10.24,0,0,0-8,3.4Q8,126,8,131.77q0,6,2.43,9.15a8.41,8.41,0,0,0,7.09,3.16,24.45,24.45,0,0,0,4.92-.5V135.9H15.5Zm58.44,2.24q0,9.13-4.51,14t-12.92,4.9q-8.41,0-12.92-4.9t-4.51-14.09q0-9.16,4.52-14t13-4.84q8.43,0,12.91,4.88T73.94,131.64Zm-26.72,0c0,4.11.78,7.21,2.33,9.28s3.87,3.12,7,3.12q9.29,0,9.29-12.4t-9.24-12.42a8.21,8.21,0,0,0-7,3.13Q47.22,125.49,47.22,131.64ZM84,150.58V113.73h7.9v30.4H107v6.45Zm61.8-18.49q0,9.16-5.2,14t-15,4.87H115.11V113.89h11.61q9.06,0,14.07,4.8T145.8,132.09Zm-8.15.2q0-12-10.52-11.95H123V144.5h3.36Q137.65,144.5,137.65,132.29ZM69,47h77v56.77H105.35l-17.7-17a40.27,40.27,0,0,0,4.84-7.61,47,47,0,0,0,3.36-8.81H85.07A40.58,40.58,0,0,1,80.9,80.43l-9.63-9.26a23.08,23.08,0,0,0,7.56-6.27,12.26,12.26,0,0,0,2.34-7.27,9.26,9.26,0,0,0-3.78-7.74A11.44,11.44,0,0,0,69,47ZM60.1,77.93a13.63,13.63,0,0,1,3-3L74,85.81a14,14,0,0,1-7.45,2,8.46,8.46,0,0,1-5.43-1.68A5.52,5.52,0,0,1,59,81.61,6.34,6.34,0,0,1,60.1,77.93Z"/><path class="cls-2" d="M7.92,21.18v9.7H13a7.39,7.39,0,0,0,4.73-1.24,4.67,4.67,0,0,0,1.53-3.83q0-4.64-6.51-4.63Zm0-6.27h4.51a8.15,8.15,0,0,0,4.57-1,3.75,3.75,0,0,0,1.42-3.29,3.31,3.31,0,0,0-1.54-3.07A9.76,9.76,0,0,0,12,6.63H7.92ZM.16.16h11.4q7.78,0,11.3,2.25t3.52,7.18a9.1,9.1,0,0,1-1.54,5.47,6.14,6.14,0,0,1-4.1,2.58v.25a8.07,8.07,0,0,1,5,3,9.76,9.76,0,0,1,1.54,5.75,9.56,9.56,0,0,1-3.62,7.95q-3.63,2.87-9.83,2.86H.16ZM43,37V0h7.9V30.51H66V37ZM108.85.16v24.1A13.86,13.86,0,0,1,107,31.5a12,12,0,0,1-5.36,4.76,19.28,19.28,0,0,1-8.29,1.66q-7.22,0-11.21-3.69t-4-10.07V.16h7.91V23q0,4.3,1.74,6.32t5.76,2q3.89,0,5.64-2t1.75-6.36V.16ZM145,37H124V0h21V6.43H131.73v8.12h12.35V21H131.73v9.54H145ZM0,104V47H65.09a11.92,11.92,0,0,0-8.85,3.12,10,10,0,0,0-3.94,8.22,14.21,14.21,0,0,0,1.15,5.76,21.23,21.23,0,0,0,3.69,5.52,19.41,19.41,0,0,0-7,6.06,14.4,14.4,0,0,0-2,7.83,12.19,12.19,0,0,0,4.84,10.17Q57.74,97.43,66,97.42A25.16,25.16,0,0,0,80.62,93L92,104ZM69.48,62.7A19.77,19.77,0,0,1,65.13,66Q62,62.3,62,59.24a4,4,0,0,1,1.27-3.15A5.1,5.1,0,0,1,66.75,55,4.4,4.4,0,0,1,69.81,56,3.68,3.68,0,0,1,71,58.93,5.34,5.34,0,0,1,69.48,62.7ZM7,178.93v9h4.84a7.24,7.24,0,0,0,4.54-1.17,4.28,4.28,0,0,0,1.46-3.56q0-4.32-6.24-4.32Zm0-6.28h4.32a7.92,7.92,0,0,0,4.37-.92,3.44,3.44,0,0,0,1.36-3.07,3,3,0,0,0-1.48-2.86,9.53,9.53,0,0,0-4.66-.86H7ZM0,158.94H10.91q7.46,0,10.83,2.1c2.24,1.4,3.37,3.63,3.37,6.69a8.38,8.38,0,0,1-1.48,5.1,5.9,5.9,0,0,1-3.92,2.4v.24a7.76,7.76,0,0,1,4.81,2.75A8.94,8.94,0,0,1,26,183.59,8.8,8.8,0,0,1,22.53,191q-3.47,2.66-9.41,2.66H0Zm55.1,20.11q-3.51-11.3-4-12.77t-.63-2.34q-.8,3-4.52,15.11ZM58.78,194l-2.53-8.31H43.51L41,194H33l12.33-35.06h9.05L66.76,194Zm48-.32H97.44L82.34,167.4h-.21q.45,7,.45,9.93v16.35H76V158.94h9.28l15.08,26h.17q-.36-6.78-.36-9.58V158.94h6.63Zm39.23,0h-8.39L128.51,179l-3.12,2.24v12.4H118V158.94h7.39v15.9l2.91-4.09,9.44-11.81h8.2l-12.16,15.37Z"/></svg>