<svg id="Layer_1" data-name="Layer 1" xmlns="http://www.w3.org/2000/svg" viewBox="0 0 317 98"><defs><style>.cls-1{fill:#e66f12;}.cls-1,.cls-2{fill-rule:evenodd;}</style></defs><title>Merchant - Electronic Store</title><g id="Electronic-Store---Logo"><path id="Fill-1" class="cls-1" d="M8.18,26.74a9.7,9.7,0,0,1,9.19-7.15c4.8,0,8,2.75,8.79,7.15ZM17.64,13C7.91,13,0,20.22,0,31S7.91,49,17.24,49C24.81,49,29.81,45.7,33,39l-6.36-3.71c-1.89,3.85-4.59,6.25-9.26,6.25-5,0-8.65-3.3-9.19-8.52H34V30c0-10-6.76-17-16.36-17Z"/><polygon id="Fill-4" class="cls-1" points="42 48 51 48 51 0 42 0 42 48"/><path id="Fill-6" class="cls-1" d="M73.37,19.6c4.8,0,8,2.74,8.79,7.14h-18a9.7,9.7,0,0,1,9.19-7.14M89,39l-6.36-3.71c-1.89,3.85-4.59,6.25-9.26,6.25-5,0-8.65-3.3-9.19-8.52H90V30c0-10-6.76-17-16.36-17S56,20.22,56,31s7.91,18,17.24,18C80.81,49,85.81,45.71,89,39"/><path id="Fill-7" class="cls-1" d="M129,39.18l-7-4.54c-1.93,4-4.48,6.25-9,6.25-5.24,0-9.1-3.78-9.1-9.89s4-9.89,9.1-9.89c3.58,0,6.62,1.51,8.62,5.83l7.1-4.66C126.24,16.44,120.59,13,113,13c-9.73,0-18,7.15-18,18s7.86,18,18,18a17,17,0,0,0,16-9.82"/><path id="Fill-8" class="cls-1" d="M154.18,41.12a9.85,9.85,0,0,1-2.89.4c-2.61,0-4.33-1.27-4.33-4.67V21.76h7.42V15H147V6h-8.67v9H133v6.81h5.29V38.45c0,8.15,5,10.55,10.94,10.55a19.05,19.05,0,0,0,5.77-.93Z"/><path id="Fill-9" class="cls-1" d="M168.62,19.38V14H160V48h8.62V31.18c0-5.76,3.08-10.08,8.21-10.08a8.08,8.08,0,0,1,2.8.48L181,13.41a10,10,0,0,0-2.94-.41c-4.38,0-7.53,2.47-9.44,6.38"/><path id="Fill-10" class="cls-1" d="M201.5,40.89A9.54,9.54,0,0,1,191.74,31a9.76,9.76,0,1,1,19.52,0,9.54,9.54,0,0,1-9.76,9.89m0-27.89c-9.29,0-18.5,6.05-18.5,18s9.21,18,18.5,18S220,43,220,31s-9.22-18-18.5-18"/><path id="Fill-11" class="cls-1" d="M247.1,13a13.48,13.48,0,0,0-11.48,6.45V14H227V48h8.62V30.71c0-5.7,3.35-9.61,7.86-9.61,4.78,0,6.9,2.81,6.9,7.27V48H259V24.8c0-7.07-4.65-11.8-11.9-11.8"/><polygon id="Fill-12" class="cls-1" points="267 9 277 9 277 0 267 0 267 9"/><polygon id="Fill-13" class="cls-1" points="267 48 276 48 276 14 267 14 267 48"/><path id="Fill-14" class="cls-1" d="M310,34.64c-1.93,4-4.48,6.25-9,6.25-5.24,0-9.1-3.77-9.1-9.89s4-9.89,9.1-9.89c3.58,0,6.62,1.51,8.62,5.84l7.1-4.67C314.24,16.44,308.59,13,301,13c-9.73,0-18,7.15-18,18s7.86,18,18,18a17,17,0,0,0,16-9.82Z"/><path id="Fill-15" class="cls-2" d="M92.17,87.61c-3.17-.59-4.71-1.48-4.71-3s1.62-2.25,3.53-2.25a4.42,4.42,0,0,1,4.48,3.22l2.22-1.24c-1-2.74-3.43-4.3-6.68-4.3-3.63,0-6.18,1.88-6.18,4.62,0,2.92,2.45,4.48,5.8,5.1,3.09.56,4.58,1.36,4.58,3.16,0,1.54-1.44,2.8-3.84,2.8-2.73,0-4.41-1.51-4.92-4.36L84,92.54c.6,3.09,3.1,5.46,7.4,5.46,4.07,0,6.6-2.42,6.6-5.22s-1.93-4.45-5.83-5.17"/><polygon id="Fill-16" class="cls-2" points="118 82.52 123.6 82.52 123.6 98 126.4 98 126.4 82.52 132 82.52 132 80 118 80 118 82.52"/><path id="Fill-17" class="cls-2" d="M159,95.58c-3.51,0-6.16-2.6-6.16-6.58s2.65-6.58,6.16-6.58,6.16,2.6,6.16,6.58-2.65,6.58-6.16,6.58M159,80a9,9,0,1,0,9,9,8.75,8.75,0,0,0-9-9"/><path id="Fill-18" class="cls-2" d="M192.83,88V82.42h4.56c2.34,0,3.57,1,3.57,2.8S199.73,88,197.39,88Zm11-2.91c0-3-2.36-5.09-6.21-5.09H190V98h2.83V90.41h3.62L200.72,98H204l-4.56-7.82c2.67-.69,4.35-2.52,4.35-5.09Z"/><polygon id="Fill-19" class="cls-2" points="227.8 89.93 236.19 89.93 236.19 87.46 227.8 87.46 227.8 82.47 236.92 82.47 236.92 80 225 80 225 98 237 98 237 95.53 227.8 95.53 227.8 89.93"/></g></svg>