<svg id="Layer_1" data-name="Layer 1" xmlns="http://www.w3.org/2000/svg" viewBox="0 0 316 41"><defs><style>.cls-1{fill:#203540;fill-rule:evenodd;}</style></defs><title>Digital Wallet - Mobile Wallet</title><path id="Mobile-Wallet---Logo" class="cls-1" d="M36.66,39.62V2.42H31.27L18.53,33.2h-.41L5.39,2.42H0v37.2H4.33V11.21h.31L16.37,39.36h3.92L32,11.21h.31V39.62Zm19.13.49a11.94,11.94,0,0,1-9.38-3.85Q43,32.41,43,25.73t3.44-10.55a12,12,0,0,1,9.38-3.84,12,12,0,0,1,9.37,3.84Q68.6,19,68.6,25.73T65.16,36.26A11.93,11.93,0,0,1,55.79,40.11Zm0-4a7.27,7.27,0,0,0,6.08-2.74Q64,30.65,64,25.73t-2.14-7.67a7.28,7.28,0,0,0-6.08-2.72,7.29,7.29,0,0,0-6.09,2.72c-1.42,1.81-2.14,4.37-2.14,7.67s.72,5.83,2.14,7.65A7.27,7.27,0,0,0,55.79,36.12Zm32.37,4a10.63,10.63,0,0,1-5.24-1.3,9.35,9.35,0,0,1-3.68-3.62h-.41v4.43H74.6V.8H79V16.21h.41a8.35,8.35,0,0,1,3.49-3.55,10.55,10.55,0,0,1,5.22-1.32,10.35,10.35,0,0,1,8.48,3.92q3.18,3.92,3.18,10.47T96.63,36.18A10.34,10.34,0,0,1,88.16,40.11Zm-1-24.77a7.25,7.25,0,0,0-6,2.78,11.94,11.94,0,0,0-2.21,7.61,11.91,11.91,0,0,0,2.21,7.6,7.23,7.23,0,0,0,6,2.79,7.12,7.12,0,0,0,6-2.76,12.21,12.21,0,0,0,2.14-7.63,12.21,12.21,0,0,0-2.14-7.63A7.12,7.12,0,0,0,87.13,15.34Zm18.54,24.28h4.43V11.83h-4.43Zm2.21-33.43a3,3,0,0,0,2.2-.92,3,3,0,0,0,.9-2.18,3,3,0,0,0-.9-2.19,3,3,0,0,0-2.2-.9,3,3,0,0,0-2.17.9,3,3,0,0,0-.92,2.19,3,3,0,0,0,.92,2.18A3,3,0,0,0,107.88,6.19Zm9.72,33.43H122V.8H117.6Zm22.92-24.36a7.21,7.21,0,0,0-5.46,2.24,9.22,9.22,0,0,0-2.4,5.93H148a8.82,8.82,0,0,0-2.11-5.93A6.89,6.89,0,0,0,140.52,15.26Zm7.32,17.17h4.44a9.68,9.68,0,0,1-4.08,5.63,13.4,13.4,0,0,1-7.63,2,11.49,11.49,0,0,1-9.15-3.88Q128,32.36,128,25.75t3.41-10.48a11.44,11.44,0,0,1,9.12-3.93,11,11,0,0,1,8.84,3.75q3.22,3.75,3.23,10.22V27h-20v.2A10.25,10.25,0,0,0,135,33.77a7.22,7.22,0,0,0,5.68,2.42,9.47,9.47,0,0,0,4.49-1A6.1,6.1,0,0,0,147.84,32.43Zm45.45-22.17h.31l8.56,29.36h4.38l10.13-37.2h-4.85l-7.39,30.24h-.31L195.79,2.42H191.1l-8.33,30.24h-.31l-7.4-30.24h-4.84l10.13,37.2h4.38l.62-2.12Q186,35.37,187,32T189,24.94q1.08-3.75,2.06-7.09c.66-2.22,1.19-4.05,1.6-5.46Zm37.22,26a8.29,8.29,0,0,0,5.69-2,6.36,6.36,0,0,0,2.25-5V26.71L231,27.2q-6.09.4-6.09,4.53a3.89,3.89,0,0,0,1.6,3.3A6.59,6.59,0,0,0,230.51,36.22Zm-.82,3.89A10.11,10.11,0,0,1,223,37.88a7.44,7.44,0,0,1-2.66-6q0-7.64,10.13-8.23l8-.49V20.6c0-3.54-2.09-5.31-6.29-5.31a8.61,8.61,0,0,0-4.15.9,4.11,4.11,0,0,0-2.11,2.55h-4.49a7.46,7.46,0,0,1,3.46-5.37,13.06,13.06,0,0,1,7.45-2q5.07,0,7.82,2.46a8.69,8.69,0,0,1,2.75,6.8v19h-4.23v-4.1h-.41a9.17,9.17,0,0,1-3.56,3.41A10.43,10.43,0,0,1,229.69,40.11Zm20.44-.49h4.44V.8h-4.44Zm12.09,0h4.44V.8h-4.44Zm22.92-24.36a7.25,7.25,0,0,0-5.47,2.24,9.26,9.26,0,0,0-2.39,5.93h15.31a8.82,8.82,0,0,0-2.11-5.93A6.89,6.89,0,0,0,285.14,15.26Zm7.32,17.17h4.43a9.67,9.67,0,0,1-4.07,5.63,13.4,13.4,0,0,1-7.63,2A11.49,11.49,0,0,1,276,36.23q-3.37-3.87-3.38-10.48t3.41-10.48a11.44,11.44,0,0,1,9.12-3.93A11,11,0,0,1,294,15.09q3.23,3.75,3.23,10.22V27h-20v.2a10.19,10.19,0,0,0,2.33,6.55,7.21,7.21,0,0,0,5.68,2.42,9.47,9.47,0,0,0,4.49-1A6.1,6.1,0,0,0,292.46,32.43Zm12.4-27.79v7.19h-4.49v3.71h4.49V32.4q0,4,1.87,5.7c1.25,1.15,3.29,1.73,6.15,1.73a14.09,14.09,0,0,0,2.6-.26V35.83l-1,.08q-.44,0-1,0a4,4,0,0,1-3.15-1.11,5.33,5.33,0,0,1-1-3.56V15.54h6.19V11.83h-6.19V4.64Z"/></svg>