<svg id="Layer_1" data-name="Layer 1" xmlns="http://www.w3.org/2000/svg" viewBox="0 0 427 74"><defs><style>.cls-1{fill:#3ca396;fill-rule:evenodd;}</style></defs><title>Issuer - Digital Bank</title><g id="Mask"><path class="cls-1" d="M36.83,29c0-9.26-6-15.12-14.7-15.12H12.64V44.12h9.49C30.82,44.12,36.83,38.26,36.83,29ZM49,29c0,15.27-11.62,27-26.87,27H0V2H22.13C37.38,2,49,13.72,49,29Zm5.17,28V17.64H65.83V57ZM53,7.09a7,7,0,1,1,7,7.08A7.12,7.12,0,0,1,53,7.09Zm60,11V55.29C113,68.44,102.77,74,92.39,74c-8.12,0-14.91-3-18.5-9.47l10-5.8c1.49,2.74,3.75,4.93,8.9,4.93,5.46,0,8.82-2.81,8.82-8.37V51.68c-2.57,3.21-6.32,5.09-11.4,5.09C79.12,56.77,71,47.69,71,36.89S79.12,17,90.2,17c5.08,0,8.83,1.88,11.4,5.09v-4ZM101.6,36.89c0-5.4-3.9-9.08-9.45-9.08s-9.44,3.68-9.44,9.08S86.61,46,92.15,46,101.6,42.29,101.6,36.89ZM120.17,57V17.64h11.67V57ZM119,7.09a7,7,0,1,1,7,7.08A7.12,7.12,0,0,1,119,7.09ZM154,29.5v14c0,3.41,2.89,3.72,8,3.41V57.7c-15.3,1.58-19.75-3.09-19.75-14.18v-14H136V18.09h6.25V10.57L154,7V18.09h8V29.5Zm52-11.39V57.89H194.29V54.15c-2.58,3-6.4,4.85-11.63,4.85C172.43,59,164,49.85,164,38s8.43-21,18.66-21c5.23,0,9.05,1.83,11.63,4.85V18.11ZM194.29,38c0-6-3.9-9.7-9.29-9.7S175.71,32,175.71,38s3.9,9.71,9.29,9.71S194.29,44,194.29,38ZM214,57V0h12V57Zm79-16.81C293,49.75,285,56,275.18,56H252V2h21.61C283.22,2,291,8.09,291,17.43A13.4,13.4,0,0,1,286.22,28,13.87,13.87,0,0,1,293,40.19Zm-12.61-.93a4.93,4.93,0,0,0-5.21-5.17H264.62V44.43h10.56A4.93,4.93,0,0,0,280.39,39.26ZM264.62,13.57v9.57h9a4.61,4.61,0,0,0,4.8-4.79,4.56,4.56,0,0,0-4.8-4.78ZM337,18.11V57.89H325.29V54.15c-2.58,3-6.4,4.85-11.63,4.85C303.43,59,295,49.85,295,38s8.43-21,18.66-21c5.23,0,9,1.83,11.63,4.85V18.11ZM325.29,38c0-6-3.9-9.7-9.29-9.7S306.71,32,306.71,38s3.9,9.71,9.29,9.71S325.29,44,325.29,38ZM383,33.51V58H371.12V35.27c0-5-3.08-7.26-6.88-7.26-4.36,0-7.37,2.55-7.37,8.21V58H345V18.12h11.87v3.75C359,18.92,363,17,368.19,17,376.19,17,383,22.74,383,33.51ZM413.54,56,400.88,39V56H389V2h11.88V34.32l11.87-16.89H426.6L412.19,36.71,427,56Z"/></g></svg>