<svg id="Layer_1" data-name="Layer 1" xmlns="http://www.w3.org/2000/svg" viewBox="0 0 261 57"><defs><style>.cls-1{fill:#282828;fill-rule:evenodd;}</style></defs><title>Artboard 1</title><path id="Courier---Logo" class="cls-1" d="M26.17,6.41q-9,0-14.18,6T6.79,28.78q0,10.69,5,16.53t14.3,5.84a48.69,48.69,0,0,0,13-2v5.55a40,40,0,0,1-14,2.13q-12,0-18.59-7.31T0,28.71A32.81,32.81,0,0,1,3.15,13.94a22.56,22.56,0,0,1,9.1-9.76,27.49,27.49,0,0,1,14-3.43,33.72,33.72,0,0,1,15,3.13L38.55,9.32A28.88,28.88,0,0,0,26.17,6.41ZM85.48,35.57q0,10-5,15.6t-13.9,5.61a18.46,18.46,0,0,1-9.73-2.57,17,17,0,0,1-6.56-7.39,25.68,25.68,0,0,1-2.31-11.25q0-10,5-15.57T66.8,14.43q8.58,0,13.63,5.7T85.48,35.57Zm-31.13,0q0,7.82,3.13,11.93t9.21,4.1q6.07,0,9.23-4.09t3.15-11.94q0-7.8-3.15-11.84t-9.31-4.05q-6.07,0-9.17,4T54.35,35.57Zm47.94-20.4V41.68c0,3.33.75,5.82,2.27,7.46s3.89,2.46,7.12,2.46q6.41,0,9.38-3.51t3-11.44V15.17h6.19V56H125.1l-.89-5.48h-.34a12.28,12.28,0,0,1-5.27,4.62,17.73,17.73,0,0,1-7.7,1.61q-7.45,0-11.17-3.54T96,41.9V15.17Zm59.82-.74a24.87,24.87,0,0,1,4.89.44l-.86,5.75a20.62,20.62,0,0,0-4.47-.56,10.87,10.87,0,0,0-8.48,4,14.7,14.7,0,0,0-3.53,10V56h-6.19V15.17h5.11l.71,7.57h.3a17.85,17.85,0,0,1,5.48-6.15A12.33,12.33,0,0,1,162.11,14.43ZM181,56h-6.19V15.17H181ZM174.26,4.1A4.09,4.09,0,0,1,175.31,1a3.62,3.62,0,0,1,2.6-1,3.66,3.66,0,0,1,2.58,1,4,4,0,0,1,1.08,3.09,4.09,4.09,0,0,1-1.08,3.11,3.59,3.59,0,0,1-2.58,1,3.53,3.53,0,0,1-2.6-1A4.16,4.16,0,0,1,174.26,4.1ZM211.5,56.78q-9.06,0-14.3-5.52T192,35.94q0-9.88,4.87-15.7a16.18,16.18,0,0,1,13.07-5.81q7.68,0,12.15,5.05t4.47,13.33v3.91H198.38q.18,7.2,3.63,10.92t9.71,3.73a32.9,32.9,0,0,0,13.05-2.76v5.52a32.45,32.45,0,0,1-6.21,2A34.79,34.79,0,0,1,211.5,56.78Zm-1.68-37.17A10.1,10.1,0,0,0,202,22.82Q199,26,198.52,31.69h21.37q0-5.85-2.61-9A9.21,9.21,0,0,0,209.82,19.61Zm46-5.18a24.84,24.84,0,0,1,4.88.44l-.86,5.75a20.62,20.62,0,0,0-4.47-.56,10.89,10.89,0,0,0-8.48,4,14.7,14.7,0,0,0-3.53,10V56h-6.18V15.17h5.1l.71,7.57h.3a18,18,0,0,1,5.48-6.15A12.36,12.36,0,0,1,255.86,14.43Z"/></svg>