<svg id="Layer_1" data-name="Layer 1" xmlns="http://www.w3.org/2000/svg" viewBox="0 0 54 40"><defs><style>.cls-1{fill:#fff;fill-rule:evenodd;}</style></defs><title>vds_issuer_fdcu-white</title><path id="FDCB" class="cls-1" d="M2,31.34l1.48-.29v-10L2,20.8V19.12H13.06v3.81H10.93l-.13-1.66H6.27v3.82h4.87v2.15H6.27v3.81l1.49.29V33H2ZM20.34,19.12a5.71,5.71,0,0,1,4.2,1.63,5.59,5.59,0,0,1,1.65,4.17v2.3a5.59,5.59,0,0,1-1.65,4.17A5.75,5.75,0,0,1,20.34,33H14.1V31.34l1.47-.29v-10L14.1,20.8V19.12Zm-2,2.15v9.6H20.2a2.92,2.92,0,0,0,2.35-1,4,4,0,0,0,.85-2.64V24.9a4,4,0,0,0-.85-2.62,2.89,2.89,0,0,0-2.35-1ZM39,23.8H36.88L36.6,22a2.93,2.93,0,0,0-1-.65,4.28,4.28,0,0,0-1.47-.23,3.25,3.25,0,0,0-2.79,1.31,5.63,5.63,0,0,0-1,3.44v.48a5.71,5.71,0,0,0,1,3.45A3.19,3.19,0,0,0,34,31.07a4.45,4.45,0,0,0,1.5-.24,2.45,2.45,0,0,0,1.06-.64l.28-1.85H39v2.74a5.8,5.8,0,0,1-2.14,1.55,7,7,0,0,1-2.91.58,6,6,0,0,1-4.58-1.94,7,7,0,0,1-1.78-5v-.46a7.08,7.08,0,0,1,1.77-5,5.91,5.91,0,0,1,4.59-1.95,7,7,0,0,1,2.91.59A6.09,6.09,0,0,1,39,21.06Zm6.8-4.8v1.68L44.26,21v7.25A2.66,2.66,0,0,0,45,30.27,2.87,2.87,0,0,0,47,31a2.93,2.93,0,0,0,2-.67,2.65,2.65,0,0,0,.75-2.06V21l-1.48-.29V19H54.1v1.68L52.61,21v7.25a4.39,4.39,0,0,1-1.54,3.6,6.13,6.13,0,0,1-4,1.27,6.07,6.07,0,0,1-4-1.27,4.41,4.41,0,0,1-1.53-3.6V21L40,20.68V19Zm7.68,18.34v2a.69.69,0,0,1-.68.68H.68A.69.69,0,0,1,0,39.32v-2a.69.69,0,0,1,.68-.68H52.75A.69.69,0,0,1,53.43,37.34ZM27.34.1,52.8,10.38a1.09,1.09,0,0,1,.63.94v4a.68.68,0,0,1-.68.68H.68A.67.67,0,0,1,0,15.34v-4a1.09,1.09,0,0,1,.63-.94L26.09.1A2.05,2.05,0,0,1,27.34.1Z"/></svg>